<?xml version="1.0" encoding="UTF-8" standalone="no"?>
<svg
   xmlns:dc="http://purl.org/dc/elements/1.1/"
   xmlns:cc="http://creativecommons.org/ns#"
   xmlns:rdf="http://www.w3.org/1999/02/22-rdf-syntax-ns#"
   xmlns:svg="http://www.w3.org/2000/svg"
   xmlns="http://www.w3.org/2000/svg"
   xmlns:sodipodi="http://sodipodi.sourceforge.net/DTD/sodipodi-0.dtd"
   xmlns:inkscape="http://www.inkscape.org/namespaces/inkscape"
   inkscape:version="1.0 (4035a4fb49, 2020-05-01)"
   sodipodi:docname="clipboard-list.svg"
   id="svg849"
   version="1.1"
   fill="none"
   viewBox="0 0 20 20"
   height="20"
   width="20">
  <metadata
     id="metadata855">
    <rdf:RDF>
      <cc:Work
         rdf:about="">
        <dc:format>image/svg+xml</dc:format>
        <dc:type
           rdf:resource="http://purl.org/dc/dcmitype/StillImage" />
      </cc:Work>
    </rdf:RDF>
  </metadata>
  <defs
     id="defs853" />
  <sodipodi:namedview
     inkscape:current-layer="svg849"
     inkscape:window-maximized="1"
     inkscape:window-y="-8"
     inkscape:window-x="-8"
     inkscape:cy="7.0315399"
     inkscape:cx="10"
     inkscape:zoom="26.95"
     showgrid="false"
     id="namedview851"
     inkscape:window-height="745"
     inkscape:window-width="1366"
     inkscape:pageshadow="2"
     inkscape:pageopacity="0"
     guidetolerance="10"
     gridtolerance="10"
     objecttolerance="10"
     borderopacity="1"
     bordercolor="#666666"
     pagecolor="#ffffff" />
  <rect
     y="0.03710584"
     x="0.040816367"
     height="20"
     width="20"
     id="rect857"
     style="fill:#8bcbe0;stroke:none;stroke-opacity:0;fill-opacity:1" />
  <path
     style="fill:#767676;fill-opacity:1;stroke:none;stroke-opacity:0;stroke-width:3.2692914;stroke-miterlimit:4;stroke-dasharray:none;stroke-dashoffset:0"
     id="path845"
     fill="#4A5568"
     d="M9 2C8.44772 2 8 2.44772 8 3C8 3.55228 8.44772 4 9 4H11C11.5523 4 12 3.55228 12 3C12 2.44772 11.5523 2 11 2H9Z" />
  <path
     style="fill:#767676;fill-opacity:1"
     id="path847"
     fill="#4A5568"
     d="M4 5C4 3.89543 4.89543 3 6 3C6 4.65685 7.34315 6 9 6H11C12.6569 6 14 4.65685 14 3C15.1046 3 16 3.89543 16 5V16C16 17.1046 15.1046 18 14 18H6C4.89543 18 4 17.1046 4 16V5ZM7 9C6.44772 9 6 9.44772 6 10C6 10.5523 6.44772 11 7 11H7.01C7.56228 11 8.01 10.5523 8.01 10C8.01 9.44772 7.56228 9 7.01 9H7ZM10 9C9.44772 9 9 9.44772 9 10C9 10.5523 9.44772 11 10 11H13C13.5523 11 14 10.5523 14 10C14 9.44772 13.5523 9 13 9H10ZM7 13C6.44772 13 6 13.4477 6 14C6 14.5523 6.44772 15 7 15H7.01C7.56228 15 8.01 14.5523 8.01 14C8.01 13.4477 7.56228 13 7.01 13H7ZM10 13C9.44772 13 9 13.4477 9 14C9 14.5523 9.44772 15 10 15H13C13.5523 15 14 14.5523 14 14C14 13.4477 13.5523 13 13 13H10Z"
     clip-rule="evenodd"
     fill-rule="evenodd" />
</svg>
